<?xml version="1.0" encoding="utf-8"?>
<!-- Generator: Adobe Illustrator 18.0.0, SVG Export Plug-In . SVG Version: 6.00 Build 0)  -->
<!DOCTYPE svg PUBLIC "-//W3C//DTD SVG 1.1//EN" "http://www.w3.org/Graphics/SVG/1.1/DTD/svg11.dtd">
<svg version="1.1" id="Layer_1" xmlns="http://www.w3.org/2000/svg" xmlns:xlink="http://www.w3.org/1999/xlink" x="0px" y="0px"
	 viewBox="0 0 190.1 57.6" enable-background="new 0 0 190.1 57.6" xml:space="preserve">
<g id="header_logo">
	<path fill="#FFFFFF" d="M38.9,52.6l-24,0v0C6.7,52.6,0,45.9,0,37.7c0-5.5,3-10.2,7.4-12.8c-0.3-1-0.6-2.1-0.6-3.2
		c0-5.7,4.6-10.3,10.3-10.3c1.1,0,2.1,0.2,3.1,0.5c3.3-7,10.3-12,18.6-12V52.6z"/>
	<rect x="40.6" y="0" fill="#00B1D0" width="7.2" height="7.2"/>
	<rect x="49.6" y="0" fill="#1ED6B3" width="7.2" height="7.2"/>
	<rect x="40.6" y="9.1" fill="#00B1D0" width="7.2" height="7.2"/>
	<rect x="49.6" y="9.1" fill="#1ED6B3" width="7.2" height="7.2"/>
	<rect x="58.7" y="9.1" fill="#4FDB6D" width="7.2" height="7.2"/>
	<rect x="40.6" y="18.1" fill="#00B1D0" width="7.2" height="7.2"/>
	<rect x="49.6" y="18.1" fill="#1ED6B3" width="7.2" height="7.2"/>
	<rect x="58.7" y="18.1" fill="#4FDB6D" width="7.2" height="7.2"/>
	<rect x="40.6" y="27.1" fill="#00B1D0" width="7.2" height="7.2"/>
	<rect x="49.6" y="27.1" fill="#1ED6B3" width="7.2" height="7.2"/>
	<rect x="58.7" y="27.1" fill="#4FDB6D" width="7.2" height="7.2"/>
	<rect x="67.7" y="27.1" fill="#A2E538" width="7.2" height="7.2"/>
	<rect x="40.6" y="36.2" fill="#00B1D0" width="7.2" height="7.2"/>
	<rect x="49.6" y="36.2" fill="#1ED6B3" width="7.2" height="7.2"/>
	<rect x="58.7" y="36.2" fill="#4FDB6D" width="7.2" height="7.2"/>
	<rect x="67.7" y="36.2" fill="#A2E538" width="7.2" height="7.2"/>
	<rect x="40.6" y="45.2" fill="#00B1D0" width="7.2" height="7.2"/>
	<rect x="49.6" y="45.2" fill="#1ED6B3" width="7.2" height="7.2"/>
	<rect x="58.7" y="45.2" fill="#4FDB6D" width="7.2" height="7.2"/>
	<g>
		<path fill="#FFFFFF" d="M84.7,21c0-5.5,3.5-8.7,8-8.7c1.7,0,3.1,0.3,4.3,1l-0.4,1.1c-1-0.5-2.3-0.7-3.9-0.7
			c-3.8,0-6.5,2.5-6.5,7.3c0,5.1,2.6,7.1,5.9,7.1c1.8,0,3-0.4,4.2-1.2l0.6,1.1c-1.4,0.9-2.9,1.5-5,1.5C87.6,29.3,84.7,26.7,84.7,21z
			"/>
		<path fill="#FFFFFF" d="M109.6,23.3c0,4-2,6.1-5.2,6.1s-5.2-2.1-5.2-6.1c0-4,2-6.1,5.2-6.1S109.6,19.2,109.6,23.3z M108.1,23.3
			c0-3.4-1.5-4.9-3.7-4.9c-2.2,0-3.7,1.5-3.7,4.9c0,3.4,1.5,4.9,3.7,4.9C106.6,28.1,108.1,26.7,108.1,23.3z"/>
		<path fill="#FFFFFF" d="M121.6,22v7h-1.4v-7.5c0-2.3-0.9-3.2-2.9-3.2c-1.1,0-2,0.4-3,1.2V29h-1.4V17.5l1.4-0.2v1
			c1-0.7,2.2-1.2,3.6-1.2c2.2,0,3.6,0.8,3.8,3.1C121.6,20.8,121.6,21.3,121.6,22z"/>
		<path fill="#FFFFFF" d="M131,28.8c-0.6,0.3-1.3,0.6-2.3,0.6c-1.8,0-2.6-1-2.6-2.3c0-0.6,0-1.1,0-1.9v-6.5h-1.7v-1.1h1.7v-2.9
			l1.4-0.2v3.1h3.4l-0.2,1.1h-3.3v7.1c0,1.9,0.5,2.5,1.8,2.5c0.5,0,0.9-0.1,1.4-0.3L131,28.8z"/>
		<path fill="#FFFFFF" d="M140.2,29.2l-0.3-1.1c-1.3,0.9-2.4,1.3-3.6,1.3c-1.9,0-3.4-0.9-3.4-3.5c0-2.3,1.8-3.5,4.7-3.5
			c0.8,0,1.6,0.1,2.2,0.2v-1.5c0-1.7-0.8-2.8-2.8-2.8c-0.9,0-1.9,0.2-2.8,0.8l-0.4-1c1.1-0.6,2.3-1,3.6-1c2.3,0,3.8,1.1,3.9,3.3
			c0,0.5,0,1,0,1.8v4.2c0,1,0,1.5,0.3,2.6L140.2,29.2z M136.8,28.2c1,0,2-0.3,3.1-1v-3.5c-0.6-0.1-1.4-0.2-2.3-0.2
			c-1.9,0-3.1,0.7-3.1,2.3C134.4,27.3,135.2,28.2,136.8,28.2z"/>
		<path fill="#FFFFFF" d="M145.3,13.2c0.4-0.1,1.1-0.1,1.4,0v1.8c-0.4,0.1-1.1,0.1-1.4,0V13.2z M145.3,17.5l1.4-0.2V29h-1.4V17.5z"
			/>
		<path fill="#FFFFFF" d="M159.6,22v7h-1.4v-7.5c0-2.3-0.9-3.2-2.9-3.2c-1.1,0-2,0.4-3,1.2V29h-1.4V17.5l1.4-0.2v1
			c1-0.7,2.2-1.2,3.6-1.2c2.2,0,3.6,0.8,3.8,3.1C159.6,20.8,159.6,21.3,159.6,22z"/>
		<path fill="#FFFFFF" d="M170.7,27.5l0.3,1c-1.3,0.6-2.5,0.8-3.7,0.8c-3.4,0-4.9-1.8-4.9-5.9c0-4.5,1.9-6.3,4.8-6.3
			c2.6,0,3.9,1.5,4,4.4c0,0.7,0,1.2,0,1.9h-7.5c0.1,3.5,1.3,4.6,3.5,4.6C168.7,28.1,169.7,27.9,170.7,27.5z M164,22.4h6.1
			c-0.1-3.1-0.8-4.1-2.8-4.1C165.3,18.3,164.1,19.4,164,22.4z"/>
		<path fill="#FFFFFF" d="M174.8,17.6l1.4-0.2v1.4c0.6-1.2,1.4-1.6,2.3-1.6c0.6,0,0.9,0.1,1.2,0.3l-0.2,1.2
			c-0.4-0.1-0.7-0.2-1.2-0.2c-1,0-1.8,0.6-2.2,1.6V29h-1.4V17.6z"/>
	</g>
	<g>
		<g>
			<path fill="#FFFFFF" d="M84.3,50.5l0.6-2.8c1.5,0.7,2.9,0.9,4.1,0.9c1.8,0,2.6-0.8,2.6-1.7c0-1-0.6-1.5-2.8-2.5
				c-2.3-1-3.9-2-3.9-4.6c0-2.7,2.4-4.9,5.9-4.9c1.5,0,3.1,0.3,4.3,0.9l-0.6,2.7c-1-0.3-2.1-0.6-3.3-0.6c-1.1,0-2.3,0.6-2.3,1.5
				c0,0.9,0.5,1.6,2.4,2.3c2.6,1,4.2,2.3,4.2,4.6c0,3.3-2.9,5.3-6.8,5.3C87.3,51.6,85.5,51.2,84.3,50.5z"/>
			<path fill="#FFFFFF" d="M109,45.6c0,4-2.4,6.1-6.1,6.1c-3.7,0-6.1-2.1-6.1-6.1s2.4-6.1,6.1-6.1C106.6,39.6,109,41.7,109,45.6z
				 M105.1,45.6c0-2.1-0.7-3.1-2.2-3.1c-1.5,0-2.2,1-2.2,3.1s0.7,3.1,2.2,3.1C104.4,48.7,105.1,47.8,105.1,45.6z"/>
			<path fill="#FFFFFF" d="M110.8,35.1l3.9-0.2v16.4h-3.9V35.1z"/>
			<path fill="#FFFFFF" d="M128.2,39.8v11.5h-3.9v-0.9c-1,0.7-2.2,1.2-3.3,1.2c-2.5,0-3.8-1.3-4-3.5c0-0.5,0-1.2,0-2v-6l3.9-0.2v6.4
				c0,1.7,0.5,2.4,1.7,2.4c0.6,0,1.1-0.2,1.7-0.7V40L128.2,39.8z"/>
			<path fill="#FFFFFF" d="M138.5,48.5l0.3,2.4c-0.9,0.4-2.3,0.7-3.7,0.7c-2.1,0-3.1-1-3.3-2.5c-0.1-0.8-0.1-1.4-0.1-2.9v-3.5H130
				v-2.8h1.7v-2.3l3.9-1.1v3.4h3.3l-0.4,2.8h-2.9v3.7c0,1.7,0.4,2.2,1.7,2.2C137.7,48.7,138,48.6,138.5,48.5z"/>
			<path fill="#FFFFFF" d="M140.4,34.8c0.9-0.2,3-0.2,3.9,0v3.4c-0.9,0.2-3,0.2-3.9,0V34.8z M140.4,40l3.9-0.2v11.5h-3.9V40z"/>
			<path fill="#FFFFFF" d="M158.4,45.6c0,4-2.4,6.1-6.1,6.1s-6.1-2.1-6.1-6.1s2.4-6.1,6.1-6.1S158.4,41.7,158.4,45.6z M154.5,45.6
				c0-2.1-0.7-3.1-2.2-3.1c-1.5,0-2.2,1-2.2,3.1s0.7,3.1,2.2,3.1C153.8,48.7,154.5,47.8,154.5,45.6z"/>
			<path fill="#FFFFFF" d="M171.5,45.1v6.2h-3.9v-6.4c0-1.7-0.4-2.4-1.8-2.4c-0.5,0-1.1,0.2-1.6,0.6v8.1h-3.9V40l3.9-0.2v0.9
				c1-0.7,2.2-1.1,3.3-1.1c2.5,0,3.8,1.3,4,3.5C171.5,43.6,171.5,44.4,171.5,45.1z"/>
			<path fill="#FFFFFF" d="M173.2,50.7l0.5-2.6c1.1,0.5,2,0.8,3.2,0.8c0.8,0,1.1-0.3,1.1-0.8c0-0.5-0.4-0.9-1.5-1.4
				c-1.8-0.8-2.9-1.7-2.9-3.7c0-2.4,2.2-3.5,4.4-3.5c1.4,0,2.5,0.3,3.3,0.8l-0.3,2.5c-0.8-0.3-1.6-0.5-2.6-0.5
				c-0.7,0-1.1,0.3-1.1,0.7c0,0.5,0.7,0.9,1.7,1.3c2,0.9,2.7,1.9,2.7,3.7c0,2.5-2.1,3.5-4.7,3.5C175.6,51.6,174.1,51.3,173.2,50.7z"
				/>
		</g>
	</g>
</g>
<g>
</g>
<g>
</g>
<g>
</g>
<g>
</g>
<g>
</g>
<g>
</g>
<g>
</g>
<g>
</g>
<g>
</g>
<g>
</g>
<g>
</g>
<g>
</g>
<g>
</g>
<g>
</g>
<g>
</g>
</svg>
